<?xml version="1.0" encoding="utf-8"?>
<!-- Generator: Adobe Illustrator 16.0.4, SVG Export Plug-In . SVG Version: 6.00 Build 0)  -->
<!DOCTYPE svg PUBLIC "-//W3C//DTD SVG 1.1//EN" "http://www.w3.org/Graphics/SVG/1.1/DTD/svg11.dtd">
<svg version="1.1" id="Calque_1" xmlns="http://www.w3.org/2000/svg" xmlns:xlink="http://www.w3.org/1999/xlink" x="0px" y="0px"
	 width="500px" height="81.178px" viewBox="0 0 500 81.178" enable-background="new 0 0 500 81.178" xml:space="preserve">
<g>
	<g>
		<path d="M25.806,16.951v50.631c0,4.741,1.401,7.134,7.557,7.134h7.338c8.312,0,12.208-3.25,15.121-9.302l2.699-5.94l4.212,1.196
			L59.38,80.004H0.001v-4.205c10.47-2.279,11.011-2.595,11.011-6.704V16.841c0-4.213-0.542-4.426-11.011-6.584V6.045h37.245v4.212
			C26.348,12.414,25.806,12.627,25.806,16.951L25.806,16.951z M109.161,39.3c0,6.799-3.895,14.682-29.691,15.87
			c0.646,10.468,6.044,17.38,14.999,17.38c4.967,0,9.508-2.055,13.719-5.938l2.372,2.802c-4.64,6.91-12.307,11.673-21.265,11.673
			c-14.365,0-24.732-10.367-24.732-26.458c0-15.651,12.639-27.963,27.535-27.963C104.293,26.664,109.161,34.118,109.161,39.3
			L109.161,39.3z M91.341,31.092c-8.099,0-11.657,8.64-11.981,19.764c17.706-2.701,18.35-9.397,18.35-13.282
			C97.709,33.034,94.039,31.092,91.341,31.092L91.341,31.092z M131.396,81.085c-12.85,0-17.707-5.174-17.707-10.59
			c0-4.108,4.1-7.771,9.282-6.688l1.409,1.722c-3.352,5.732-0.867,11.02,7.557,11.02c5.284,0,9.068-2.916,9.068-7.342
			c0-5.173-4.322-7.34-11.011-10.03c-9.395-3.792-15.008-8.105-15.008-16.745c0-8.525,7.557-15.868,19.005-15.868
			c12.196,0,17.698,5.827,17.698,10.799c0,3.985-3.559,7.872-9.825,6.583l-1.187-1.728c3.784-5.082,1.84-11.124-6.472-11.124
			c-4.969,0-8.321,3.128-8.321,7.237c0,4.856,5.186,7.228,11.235,9.283c9.285,3.243,16.954,7.557,16.954,17.051
			C154.287,74.493,147.376,81.085,131.396,81.085L131.396,81.085z M165.514,6.156h59.276l0.542,19.424h-3.998l-2.055-6.152
			c-2.047-6.146-6.369-7.986-12.524-7.986h-15.439v27.532h15.224c3.239,0,3.455-0.542,5.614-10.152h4.211v26.675h-4.211
			c-2.271-9.181-2.487-10.582-5.614-10.582h-15.224v22.552c0,4.767,1.401,7.14,7.557,7.14h7.338c8.322,0,12.208-3.251,15.123-9.284
			l2.698-5.941l4.213,1.176l-3.354,19.333h-59.483v-4.09c10.469-2.279,11.013-2.595,11.013-6.704V16.841
			c0-4.213-0.544-4.426-11.013-6.584V6.156H165.514z M273.912,66.721l2.375,2.802c-4.649,6.909-12.31,11.655-21.267,11.655
			c-14.362,0-24.73-10.347-24.73-26.44c0-15.66,11.552-27.962,26.672-27.962c11.873,0,17.177,6.475,17.177,11.554
			c0,4.205-2.709,8.528-10.389,7.228l-1.175-1.941c2.055-4.969,2.912-12.522-5.399-12.522c-8.527,0-11.981,9.825-11.981,21.705
			c0,11.757,5.5,19.864,15.121,19.864C265.285,72.549,269.805,70.608,273.912,66.721L273.912,66.721z M312.785,73.951V45.344
			c0-6.044-2.26-8.641-6.597-8.641c-6.685,0-12.307,10.481-12.307,26.245v17.056h-14.028V10.798c0-4.11-0.336-4.326-7.135-6.594V0
			h21.705c-0.541,4.426-0.541,39.076-0.541,41.458h0.223c3.567-8.75,10.031-14.794,18.997-14.794c7.994,0,13.711,5.399,13.711,15.98
			v26.02c0,4.854,0.744,5.287,8.218,7.135v4.205c-6.389,0.653-11.355,1.081-14.476,1.081
			C315.492,81.085,312.785,78.92,312.785,73.951L312.785,73.951z M360.285,76.658c9.281,0,11.879-10.908,11.879-22.031
			c0-12.093-1.719-23.534-11.879-23.534c-9.282,0-11.879,10.907-11.879,22.022C348.406,65.209,350.347,76.658,360.285,76.658
			L360.285,76.658z M359.201,81.085c-15.109,0-25.701-10.047-25.701-25.589c0-17.392,10.908-28.935,27.867-28.935
			c15.112,0,25.701,10.042,25.701,25.582C387.068,69.523,376.162,81.085,359.201,81.085L359.201,81.085z M407.354,81.085
			c-12.853,0-17.704-5.174-17.704-10.59c0-4.108,4.108-7.771,9.301-6.688l1.381,1.722c-3.323,5.732-0.858,11.02,7.566,11.02
			c5.284,0,9.055-2.916,9.055-7.342c0-5.173-4.295-7.34-11-10.03c-9.393-3.792-14.996-8.105-14.996-16.745
			c0-8.525,7.545-15.868,18.994-15.868c12.197,0,17.707,5.827,17.707,10.799c0,3.985-3.565,7.872-9.824,6.583l-1.176-1.728
			c3.771-5.082,1.941-11.124-6.5-11.124c-4.97,0-8.293,3.128-8.293,7.237c0,4.856,5.174,7.228,11.207,9.283
			c9.301,3.243,16.961,7.557,16.961,17.051C430.255,74.493,423.344,81.085,407.354,81.085L407.354,81.085z"/>
	</g>
</g>
<g>
	<path fill="#DD3F44" d="M433.596,75.689c0-3.026,2.266-5.309,5.178-5.309c3.024,0,5.51,1.942,5.51,5.082s-1.623,5.511-5.51,5.511
		C435.638,81.085,433.596,78.714,433.596,75.689z"/>
	<path fill="#DD3F44" d="M449.048,78.714l3.121-0.766l0.536-0.656V53.328l-3.885-0.858v-1.841l3.885-1.615v-2.81
		c0-5.828,4.521-12.3,12.738-12.3c4.633,0,7.545,2.261,7.545,5.284c0,2.271-1.377,4.213-3.996,4.213
		c-2.353,0-3.883-1.298-3.883-3.567c0-1.504,0.762-3.017,2.164-3.669c-0.316-0.103-0.855-0.217-1.488-0.217
		c-2.06,0-3.684,1.516-3.684,4.643v9.069h6.256v3.24h-6.256v24.076l0.65,0.651l4.203,1.086v2.055h-17.819v-2.055H449.048z"/>
	<path fill="#DD3F44" d="M471.16,78.714l3.142-0.766l0.54-0.656v-22.88l-0.77-0.756l-2.912-0.858v-2.055l11.883-2.157l0.539,0.103
		l0.429,4.537c3.142-3.024,7.14-4.755,10.575-4.755c3.244,0,5.414,2.271,5.414,5.298c0,3.017-2.057,5.61-5.191,5.61
		c-3.023,0-4.854-1.727-4.854-4.753c0-0.429,0.108-0.971,0.108-1.4c-1.827-0.11-4.337,1.187-5.825,2.271v21.685l0.521,0.675
		l4.555,0.747v2.056h-18.042v-1.943L471.16,78.714L471.16,78.714z"/>
</g>
</svg>
