<?xml version="1.0" standalone="no"?>
<!DOCTYPE svg PUBLIC "-//W3C//DTD SVG 20010904//EN"
 "http://www.w3.org/TR/2001/REC-SVG-20010904/DTD/svg10.dtd">
<svg version="1.0" xmlns="http://www.w3.org/2000/svg"
 width="2000.000000pt" height="2000.000000pt" viewBox="0 0 2000.000000 2000.000000"
 preserveAspectRatio="xMidYMid meet">
<metadata>
Created by potrace 1.11, written by Peter Selinger 2001-2013
</metadata>
<g transform="translate(0.000000,2000.000000) scale(0.100000,-0.100000)"
fill="#000000" stroke="none">
<path d="M9605 16684 c-420 -33 -799 -93 -1155 -183 -997 -254 -1908 -727
-2706 -1405 -166 -141 -579 -554 -720 -720 -509 -598 -903 -1268 -1174 -1996
-97 -259 -231 -713 -234 -791 0 -20 -4 -35 -7 -33 -7 4 -16 -35 -60 -266 -118
-620 -149 -1346 -83 -2005 141 -1422 710 -2723 1655 -3780 234 -262 586 -591
858 -803 1003 -781 2139 -1239 3416 -1379 231 -25 979 -25 1210 0 1378 151
2598 675 3651 1571 166 141 579 554 720 720 890 1047 1424 2306 1559 3676 146
1494 -172 2957 -913 4189 -501 834 -1203 1568 -2017 2108 -171 113 -385 243
-402 243 -6 0 -13 4 -15 9 -5 14 -277 157 -458 241 -680 316 -1352 502 -2120
586 -138 15 -871 28 -1005 18z m880 -2428 c284 -41 514 -93 735 -166 861 -286
1587 -873 2061 -1667 354 -595 561 -1271 619 -2027 14 -177 14 -631 0 -801
-33 -416 -114 -827 -230 -1169 -16 -49 -27 -92 -25 -96 3 -5 1 -10 -3 -12 -5
-1 -35 -68 -67 -148 -512 -1286 -1596 -2180 -2920 -2409 -375 -65 -838 -70
-1215 -15 -988 145 -1871 667 -2473 1461 -493 652 -783 1435 -863 2335 -18
206 -20 663 -4 858 28 335 81 645 159 930 319 1160 1057 2079 2066 2570 427
208 845 322 1370 374 104 10 685 -3 790 -18z"/>
</g>
</svg>
