<?xml version="1.0" standalone="no"?>
<!DOCTYPE svg PUBLIC "-//W3C//DTD SVG 20010904//EN"
 "http://www.w3.org/TR/2001/REC-SVG-20010904/DTD/svg10.dtd">
<svg version="1.0" xmlns="http://www.w3.org/2000/svg"
 width="1400.000000pt" height="1400.000000pt" viewBox="0 0 1400.000000 1400.000000"
 preserveAspectRatio="xMidYMid meet">
<metadata>
Created by potrace 1.11, written by Peter Selinger 2001-2013
</metadata>
<g transform="translate(0.000000,1400.000000) scale(0.100000,-0.100000)"
fill="#000000" stroke="none">
<path d="M6757 12594 c-1 -1 -65 -5 -142 -8 -77 -4 -165 -9 -195 -11 -30 -3
-80 -7 -110 -10 -30 -2 -77 -7 -104 -10 -26 -4 -62 -8 -80 -10 -74 -8 -168
-21 -231 -31 -16 -3 -41 -7 -55 -9 -31 -4 -87 -14 -120 -20 -14 -3 -36 -7 -50
-10 -14 -3 -36 -7 -50 -10 -14 -3 -34 -7 -45 -9 -174 -35 -498 -123 -605 -163
-8 -3 -20 -7 -26 -8 -18 -4 -218 -76 -249 -90 -16 -8 -59 -26 -95 -41 -186
-76 -479 -222 -597 -297 -24 -15 -45 -27 -48 -27 -3 0 -18 -8 -33 -19 -15 -10
-79 -53 -142 -94 -99 -64 -297 -206 -337 -241 -7 -6 -18 -15 -25 -21 -100 -76
-192 -160 -353 -320 -168 -167 -189 -190 -362 -400 -72 -87 -189 -254 -319
-455 -106 -165 -336 -613 -379 -740 -2 -5 -9 -24 -32 -80 -30 -73 -103 -278
-103 -289 0 -6 -4 -19 -10 -29 -23 -41 -143 -482 -165 -607 -2 -11 -11 -56
-19 -100 -23 -114 -22 -113 -36 -195 -6 -41 -13 -86 -16 -100 -2 -14 -7 -45
-9 -70 -3 -25 -8 -56 -10 -69 -2 -14 -7 -52 -10 -85 -4 -34 -8 -72 -10 -86 -2
-14 -7 -63 -10 -110 -4 -47 -8 -101 -10 -120 -26 -258 -26 -929 -1 -1170 2
-19 7 -73 11 -120 3 -47 7 -98 9 -115 7 -65 17 -151 21 -175 2 -14 6 -47 9
-75 4 -27 8 -61 11 -75 3 -14 7 -38 9 -55 30 -193 84 -452 127 -608 11 -39 26
-97 35 -127 74 -275 233 -683 377 -965 74 -145 178 -329 189 -333 4 -2 8 -9 8
-16 0 -7 8 -21 18 -32 10 -10 19 -23 20 -29 3 -11 60 -100 143 -219 55 -80
235 -308 299 -380 120 -135 275 -291 390 -395 19 -17 45 -41 57 -52 26 -24
227 -185 267 -214 16 -11 47 -34 70 -51 61 -45 253 -174 260 -174 4 0 29 -16
56 -35 27 -19 51 -35 53 -35 2 0 53 -27 113 -61 93 -52 356 -183 419 -209 11
-4 36 -15 55 -23 167 -73 443 -169 639 -223 125 -34 348 -88 406 -98 17 -3 55
-10 85 -16 57 -12 64 -13 140 -24 25 -4 68 -11 95 -16 28 -5 76 -12 109 -15
32 -4 68 -8 80 -10 11 -2 53 -7 91 -10 39 -4 84 -9 100 -10 17 -2 73 -7 125
-10 52 -3 124 -8 160 -11 84 -6 660 -6 765 1 168 10 232 14 285 20 30 4 73 8
95 10 22 2 58 6 80 9 22 2 63 7 90 11 28 3 79 10 115 16 36 6 76 12 90 14 39
5 101 16 145 25 22 5 56 12 75 15 57 10 200 43 265 60 33 10 67 18 75 20 8 1
22 5 30 8 8 3 42 13 75 22 163 44 504 164 586 206 20 10 39 15 43 12 3 -4 6
-1 6 5 0 7 6 12 13 12 15 0 14 -1 222 101 260 127 626 354 800 496 6 5 30 24
55 43 200 153 521 465 680 660 25 30 47 57 50 60 7 6 115 148 171 225 268 369
520 859 679 1325 36 106 98 304 105 333 2 12 14 58 26 102 11 44 22 87 24 95
2 8 18 78 35 154 17 77 33 155 35 175 2 20 4 36 5 36 2 0 6 22 16 85 4 25 8
50 10 57 4 22 15 98 19 133 2 19 7 54 10 78 3 23 7 59 10 80 2 20 6 53 9 72 2
19 7 82 11 140 4 58 8 116 11 130 23 148 23 804 -1 1115 -7 90 -16 199 -21
240 -2 22 -6 63 -9 90 -2 28 -6 61 -9 75 -5 29 -14 94 -21 160 -3 25 -7 56
-10 70 -3 14 -8 41 -11 60 -4 19 -8 44 -11 55 -2 11 -6 38 -9 60 -3 22 -9 54
-14 70 -4 17 -11 46 -14 65 -3 19 -9 46 -12 60 -3 14 -7 35 -10 48 -8 40 -74
294 -91 352 -9 30 -18 60 -19 65 -1 6 -23 72 -48 149 -141 418 -302 757 -551
1162 -11 18 -39 60 -62 94 -24 33 -43 63 -43 65 0 3 -7 13 -15 22 -7 10 -44
59 -81 108 -123 165 -257 319 -418 480 -227 226 -429 396 -646 540 -41 28 -77
53 -80 56 -4 5 -149 96 -198 124 -128 75 -243 136 -367 195 -82 39 -157 75
-167 80 -17 9 -325 130 -343 135 -5 1 -17 5 -25 8 -34 14 -375 119 -401 124
-8 1 -42 10 -75 18 -32 9 -70 18 -84 21 -14 3 -41 9 -60 14 -19 5 -50 12 -68
15 -18 3 -65 12 -105 21 -39 8 -88 17 -107 20 -19 3 -60 9 -90 14 -101 17
-230 34 -335 44 -22 2 -60 7 -85 10 -25 3 -81 8 -125 11 -44 3 -116 8 -160 11
-79 5 -673 13 -678 8z m488 -2189 c44 -4 94 -8 110 -10 33 -3 179 -25 210 -31
11 -3 43 -9 70 -14 223 -44 541 -173 735 -298 79 -52 204 -144 208 -154 2 -4
7 -8 12 -8 8 0 108 -89 160 -141 96 -98 141 -150 269 -315 28 -35 129 -194
124 -194 -3 0 1 -8 9 -17 17 -19 113 -205 146 -283 30 -71 84 -208 86 -220 1
-3 8 -25 17 -50 20 -54 53 -162 75 -245 21 -79 20 -74 28 -120 4 -22 12 -53
17 -70 5 -16 11 -46 13 -65 3 -20 7 -47 10 -60 8 -34 15 -77 21 -125 3 -22 7
-51 10 -65 3 -14 7 -45 10 -70 3 -25 8 -61 10 -80 5 -35 13 -115 20 -200 28
-332 24 -920 -9 -1227 -3 -29 -9 -79 -12 -110 -4 -32 -8 -66 -10 -77 -2 -10
-6 -43 -10 -74 -3 -30 -7 -60 -9 -66 -5 -27 -15 -84 -19 -111 -2 -16 -12 -64
-21 -105 -9 -41 -18 -86 -21 -100 -36 -179 -196 -653 -235 -695 -5 -5 -9 -17
-9 -27 0 -10 -4 -18 -9 -18 -5 0 -11 -10 -15 -23 -3 -12 -34 -71 -69 -132 -85
-148 -86 -150 -137 -221 -25 -34 -52 -72 -60 -84 -8 -12 -24 -32 -35 -45 -126
-145 -176 -198 -255 -270 -168 -152 -305 -245 -490 -335 -58 -28 -113 -56
-124 -61 -54 -30 -343 -122 -425 -135 -14 -2 -39 -7 -56 -11 -16 -4 -32 -7
-35 -8 -11 -2 -107 -17 -135 -20 -16 -2 -57 -7 -90 -12 -77 -10 -561 -9 -640
1 -33 4 -73 9 -90 11 -47 5 -106 15 -155 26 -25 5 -56 12 -70 14 -61 11 -88
18 -127 31 -23 7 -52 15 -65 18 -13 2 -61 19 -108 36 -47 17 -98 36 -115 42
-48 18 -238 115 -278 143 -21 14 -40 25 -43 25 -9 0 -182 126 -237 172 -111
93 -272 264 -360 379 -67 88 -152 217 -188 284 -139 258 -240 511 -304 765
-24 91 -55 221 -59 245 -2 17 -12 71 -21 120 -24 137 -24 136 -31 193 -3 29
-7 62 -9 73 -2 11 -7 48 -10 82 -3 34 -8 85 -12 112 -34 286 -33 959 2 1290 4
39 9 81 10 95 8 72 38 286 41 292 2 3 7 27 9 51 7 55 7 53 40 202 15 66 38
158 52 205 14 47 26 92 28 100 7 32 94 268 121 330 44 102 147 299 190 365 21
33 41 65 44 72 3 6 48 67 100 134 157 203 349 383 548 515 185 122 472 251
645 289 10 2 27 7 37 10 22 7 55 14 155 35 82 17 96 19 149 25 28 4 69 8 91
11 22 3 87 8 145 11 58 3 106 6 107 7 5 5 250 -3 328 -9z"/>
</g>
</svg>
