<?xml version="1.0" standalone="no"?>
<!DOCTYPE svg PUBLIC "-//W3C//DTD SVG 20010904//EN"
 "http://www.w3.org/TR/2001/REC-SVG-20010904/DTD/svg10.dtd">
<svg version="1.0" xmlns="http://www.w3.org/2000/svg"
 width="2000.000000pt" height="2000.000000pt" viewBox="0 0 2000.000000 2000.000000"
 preserveAspectRatio="xMidYMid meet">
<metadata>
Created by potrace 1.11, written by Peter Selinger 2001-2013
</metadata>
<g transform="translate(0.000000,2000.000000) scale(0.100000,-0.100000)"
fill="#000000" stroke="none">
<path d="M9655 17433 c-22 -1 -103 -7 -180 -13 -609 -47 -1226 -198 -1760
-430 -1274 -555 -2121 -1584 -2345 -2850 -69 -395 -79 -890 -24 -1265 151
-1038 735 -1859 1807 -2544 198 -127 419 -250 697 -390 334 -167 559 -265
1110 -486 1466 -588 1658 -669 1982 -831 389 -196 653 -376 863 -588 323 -325
457 -663 457 -1156 0 -321 -52 -552 -179 -802 -273 -536 -868 -894 -1683
-1012 -307 -44 -746 -47 -1015 -7 -545 83 -1027 293 -1460 637 -164 131 -429
401 -588 602 -76 95 -168 205 -205 244 -355 377 -772 554 -1222 517 -335 -27
-612 -175 -800 -429 -176 -237 -264 -581 -231 -895 43 -401 204 -752 532
-1160 503 -626 1046 -1058 1774 -1411 1348 -653 2943 -780 4440 -354 374 107
680 223 1020 389 538 263 965 561 1345 941 558 556 911 1205 1059 1945 128
638 97 1331 -85 1896 -329 1025 -1166 1825 -2709 2589 -568 281 -867 407
-2005 845 -690 265 -787 306 -995 414 -297 154 -502 298 -686 481 -256 256
-392 512 -445 839 -17 109 -20 351 -4 466 120 877 936 1420 2080 1381 493 -16
874 -132 1236 -374 213 -143 408 -321 722 -660 133 -142 241 -233 368 -308
566 -335 1287 -226 1644 248 152 201 223 421 222 693 0 350 -146 679 -485
1100 -120 149 -434 462 -617 614 -829 692 -1725 1041 -2880 1121 -130 9 -655
11 -755 3z"/>
</g>
</svg>
