<?xml version="1.0" encoding="utf-8"?>
<!-- Generator: Adobe Illustrator 22.0.1, SVG Export Plug-In . SVG Version: 6.00 Build 0)  -->
<svg version="1.1" id="Layer_1" xmlns="http://www.w3.org/2000/svg" xmlns:xlink="http://www.w3.org/1999/xlink" x="0px" y="0px"
	 viewBox="0 0 512 512" style="enable-background:new 0 0 512 512;" xml:space="preserve">
<style type="text/css">
	.st0{font-family:'NunitoSans-Black';}
	.st1{font-size:464.2464px;}
	.st2{clip-path:url(#SVGID_2_);}
	.st3{clip-path:url(#SVGID_4_);}
	.st4{fill:#5BC855;}
	.st5{fill:#66CCCC;}
	.st6{fill:#C1DC00;}
	.st7{fill:#FFDD00;}
	.st8{fill:#FBBA00;}
	.st9{fill:#F18700;}
	.st10{fill:#FF6699;}
</style>
<g>
	<g>
		<g id="Layer_2_1_">
			<defs>
				<text id="SVGID_1_" transform="matrix(1 0 0 1 71.0029 422.2271)" class="st0 st1">O</text>
			</defs>
			<clipPath id="SVGID_2_">
				<use xlink:href="#SVGID_1_"  style="overflow:visible;"/>
			</clipPath>
			<g class="st2">
				<g>
					<defs>
						<rect id="SVGID_3_" x="-204" y="-196.2" width="920" height="920"/>
					</defs>
					<clipPath id="SVGID_4_">
						<use xlink:href="#SVGID_3_"  style="overflow:visible;"/>
					</clipPath>
					<g class="st3">

							<rect x="-86.7" y="159.3" transform="matrix(0.7071 -0.7071 0.7071 0.7071 -79.9779 178.9967)" class="st4" width="525.5" height="53.5"/>

							<rect x="-124.4" y="121.6" transform="matrix(0.7071 -0.7071 0.7071 0.7071 -64.3475 141.2703)" class="st5" width="525.5" height="53.5"/>

							<rect x="-48.9" y="197.1" transform="matrix(0.7071 -0.7071 0.7071 0.7071 -95.6375 216.7938)" class="st6" width="525.5" height="53.5"/>

							<rect x="-11.1" y="234.9" transform="matrix(0.7071 -0.7071 0.7071 0.7071 -111.2972 254.5909)" class="st7" width="525.5" height="53.5"/>

							<rect x="26.7" y="272.7" transform="matrix(0.7071 -0.7071 0.7071 0.7071 -126.9569 292.388)" class="st8" width="525.5" height="53.5"/>

							<rect x="64.5" y="310.5" transform="matrix(0.7071 -0.7071 0.7071 0.7071 -142.6165 330.1851)" class="st9" width="525.5" height="53.5"/>

							<rect x="102.3" y="348.3" transform="matrix(0.7071 -0.7071 0.7071 0.7071 -158.2762 367.9822)" class="st10" width="525.5" height="53.5"/>
					</g>
				</g>
			</g>
			<g class="st2">
				<g>
					<defs>
						<text id="SVGID_5_" transform="matrix(1 0 0 1 732.8867 418.2271)" class="st0" style="font-size:457px;">O</text>
					</defs>
					<clipPath id="SVGID_6_">
						<use xlink:href="#SVGID_5_"  style="overflow:visible;"/>
					</clipPath>
				</g>
			</g>
		</g>
	</g>
</g>
</svg>
