<?xml version="1.0" encoding="utf-8"?>
<!-- Generator: Adobe Illustrator 22.0.1, SVG Export Plug-In . SVG Version: 6.00 Build 0)  -->
<svg version="1.1" id="Layer_1" xmlns="http://www.w3.org/2000/svg" xmlns:xlink="http://www.w3.org/1999/xlink" x="0px" y="0px"
	 viewBox="0 0 512 512" enable-background="new 0 0 512 512" xml:space="preserve">
<g>
	<g>
		<g>
			<g>
				<defs>
					<text id="SVGID_1_" transform="matrix(1 0 0 1 71.0029 422.2271)" font-family="'NunitoSans-Black'" font-size="464.2464px">O</text>
				</defs>
				<clipPath id="SVGID_2_">
					<use xlink:href="#SVGID_1_"  overflow="visible"/>
				</clipPath>
				<g id="Layer_2_1_" clip-path="url(#SVGID_2_)">
					<g>
						<g>
							<defs>
								<rect id="SVGID_3_" x="-204" y="-196.2" width="920" height="920"/>
							</defs>
							<clipPath id="SVGID_4_">
								<use xlink:href="#SVGID_3_"  overflow="visible"/>
							</clipPath>
							<g clip-path="url(#SVGID_4_)">

									<rect x="-86.7" y="159.3" transform="matrix(0.7071 -0.7071 0.7071 0.7071 -80.0021 178.9933)" fill="#5BC855" width="525.5" height="53.5"/>

									<rect x="-124.4" y="121.6" transform="matrix(0.7071 -0.7071 0.7071 0.7071 -64.3631 141.2962)" fill="#66CCCC" width="525.5" height="53.5"/>

									<rect x="-48.9" y="197.1" transform="matrix(0.7071 -0.7071 0.7071 0.7071 -95.6581 216.7905)" fill="#C1DC00" width="525.5" height="53.5"/>

									<rect x="-11.1" y="234.9" transform="matrix(0.7071 -0.7071 0.7071 0.7071 -111.3142 254.5875)" fill="#FFDD00" width="525.5" height="53.5"/>

									<rect x="26.7" y="272.7" transform="matrix(0.7071 -0.7071 0.7071 0.7071 -126.9703 292.3846)" fill="#FBBA00" width="525.5" height="53.5"/>

									<rect x="64.5" y="310.5" transform="matrix(0.7071 -0.7071 0.7071 0.7071 -142.6263 330.1817)" fill="#F18700" width="525.5" height="53.5"/>

									<rect x="102.3" y="348.3" transform="matrix(0.7071 -0.7071 0.7071 0.7071 -158.2824 367.9788)" fill="#FF6699" width="525.5" height="53.5"/>
							</g>
						</g>
					</g>
					<g>
						<defs>
							<text id="SVGID_5_" transform="matrix(1 0 0 1 71.0029 422.2271)" font-family="'NunitoSans-Black'" font-size="464.2464px">O</text>
						</defs>
						<clipPath id="SVGID_6_">
							<use xlink:href="#SVGID_5_"  overflow="visible"/>
						</clipPath>
					</g>
				</g>
			</g>
		</g>
	</g>
</g>
</svg>
