<svg id="Layer_1" xmlns="http://www.w3.org/2000/svg" viewBox="0 0 117 19.1"><style>.st0{fill:#1d1d1b}</style><path class="st0" d="M15.1 17.4c2.1-.2 4.2-.9 4.2-3.1V7.2l-1-1-1.1 1v5.3l.9.8-2 1.8H16l-2-1.7.5-.5V2.1c0-.8-.7-1.2-1.1-1.3V.6c.2-.1.5-.2.9-.2.7 0 1.3.4 1.5.9h.1c.4-.6 1.1-.9 1.7-.9.2 0 .4 0 .6.1v.2c-.3.1-.9.5-.9 1.6v4.5L20 4.3h.2c.2.2 1.3 1.2 1.6 1.4.1.1.2.1.4.1s.4-.1.6-.2v.3c-.2.2-.5.5-.5 1V13c0 2.7-3 4.4-7 4.7v-.3zM14.1.7c.4.3.8.6.8 1.3v11.1l-.4.4 1.7 1.4.5-.4-1.3-1.1.2-.2V2.1c-.1-.9-.9-1.3-1.5-1.4m4.7 16c.8-.5 1.6-1.1 1.6-2.3V6.8l-1.2-1.3-.6.5 1 1.1v7.2c.1 1-.3 1.8-.8 2.4zM23.8 6.8c1.2-.6 2.9-1.6 4.1-2.5h.2c.8.8 1.9 2.1 2.9 3v.2l-4.4 2.8v1.8c.4.3 1.7.9 2.5 1.2l1.8-1.7.2.2-3.5 3.4h-.2c-1.2-.5-2.7-1.2-3.7-1.7.1-.4.2-1.3.2-2.4V6.8zm4.1 7.7c-1.2-.5-2.2-1-3.2-1.5.1-.3.1-.8.1-1.9V6.6l-.7.4v4.1c0 1.1 0 1.9-.1 2.2.9.5 2.2 1.1 3.4 1.6l.5-.4zM26.6 10l2-1.3c-.7-.8-1.4-1.6-2-2.2V10zm.6-4.4l-.5.4c.6.7 1.4 1.6 2.2 2.5l.6-.4c-.9-.9-1.7-1.8-2.3-2.5M109.5 17.4c2.1-.2 4.2-.9 4.2-3.1V7.2l-1-1-1.1 1v5.3l.9.8-2 1.8h-.2l-2-1.7.5-.5V2.1c0-.8-.7-1.2-1.1-1.3V.6c.2-.1.5-.2.9-.2.7 0 1.3.4 1.5.9h.1c.4-.6 1.1-.9 1.7-.9.2 0 .4 0 .6.1v.2c-.3.1-.9.5-.9 1.6v4.5l2.6-2.5h.2c.2.2 1.3 1.2 1.6 1.4.1.1.2.1.4.1s.4-.1.6-.2V6c-.2.2-.5.5-.5 1v6c0 2.7-3 4.4-7 4.7v-.3zm-1-16.7c.3.2.8.6.8 1.3v11l-.4.4 1.7 1.4.5-.4-1.3-1.1.2-.2v-11c-.1-.9-.9-1.3-1.5-1.4m4.6 15.9c.8-.5 1.6-1.1 1.6-2.3V6.8l-1.2-1.3-.5.5 1 1.1v7.2c.1 1-.3 1.8-.9 2.3zM49.7 6.8c1.2-.6 2.9-1.6 4.1-2.5h.2c.8.8 1.9 2.1 2.8 2.9v.2l-4.3 2.8V12c.5.3 1.7.9 2.5 1.2l1.8-1.7.2.2-3.5 3.4h-.2c-1.2-.5-2.7-1.2-3.7-1.7.1-.4.2-1.3.2-2.4V6.8zm4 7.7c-1.2-.5-2.2-1-3.2-1.5.1-.3.1-.8.1-1.9V6.6l-.6.3V11c0 1.1 0 1.9-.1 2.2.9.5 2.2 1.1 3.4 1.6l.4-.3zm-1.2-4.6l2-1.3c-.7-.8-1.4-1.6-2-2.2v3.5zm.6-4.3l-.6.4c.6.7 1.4 1.6 2.2 2.5l.6-.4c-.8-.9-1.6-1.8-2.2-2.5M60.8 1.8v10.5c0 .4.4.9.8 1l.6-.6.2.2-2.2 2.3H60c-.8-.2-2-1-2-2.3V3.1l-.6-.6-.7.7-.2-.2L59 .4h.2l1.6 1.4zm-.3 12.6c-.8-.2-1.6-.7-1.6-1.8V2.7l-.9-.9-.5.5.8.7v9.9c0 1.1.9 1.8 1.7 2l.5-.5zM63.4 6.8c1.2-.6 2.9-1.6 4.1-2.5h.2c.8.8 1.9 2.1 2.8 2.9v.2l-4.3 2.8V12c.4.3 1.7.9 2.5 1.2l1.8-1.7.2.2-3.5 3.4H67c-1.2-.5-2.7-1.2-3.7-1.7.1-.4.2-1.3.2-2.4V6.8zm4 7.7c-1.2-.5-2.2-1-3.2-1.5.1-.3.1-.8.1-1.9V6.6l-.6.3V11c0 1.1 0 1.9-.1 2.2.9.5 2.2 1.1 3.4 1.6l.4-.3zm-1.2-4.6l2-1.3c-.7-.8-1.4-1.6-2-2.2v3.5zm.6-4.3l-.5.4c.6.7 1.4 1.6 2.2 2.5l.5-.4c-.8-.9-1.6-1.8-2.2-2.5M84.6 7.2v5.1c0 .4.4.9.8.9l.6-.6.2.2-2.2 2.3h-.1c-.8-.2-2-.9-2-2.3V7l-.6-.6-.7.6-.2-.2 2.5-2.5h.2l1.6 1.6v.9l2-2.4h.2c.4.4 1 1 1.6 1.4l-1.7 2c-.5-.4-1.1-1-1.5-1.3l-.7.7zm-.2 7.2c-.8-.2-1.6-.7-1.6-1.8v-6l-.8-.9-.5.5.7.7v5.9c0 1.1.9 1.8 1.7 2l.5-.4zm1.1-8.1c.3.3.8.8 1.2 1.1l.4-.5c-.4-.3-1-.9-1.3-1.1l-.3.5zM91.1 15.2l-2.4-1.6v-3.2c.6-.4 1.9-1.3 2.5-1.7-1-.5-1.8-1.1-2.3-1.8v-.2c1.4-.8 2.5-1.6 3.3-2.4h.2s3 1.4 3.1 1.5c.2.1.3.1.4.1.2 0 .4-.1.6-.2V6c-.2.2-.5.5-.5.9v5.3c0 .6.5.9.9 1l.6-.6.2.2-2.2 2.3h-.1c-.9-.2-1.9-1.1-2-2.1l-2.1 2.1h-.2zm.5-.8l-2-1.3v-3l-.6.4v2.9l2.2 1.4.4-.4zm1.7-5.2V7.6l-2.9-1.5c-.2.2-1 .6-1.2.8.7.8 2.5 1.9 4.1 2.3m2.6 5.2c-.8-.3-1.6-.8-1.6-1.9V7l-3-1.5c-.1.1-.4.3-.5.4l2.9 1.5v5.4c0 1 1 1.8 1.7 2.1l.5-.5zm-2.6-1.7V9.5c-.6-.2-1.3-.4-1.9-.7v4l1.1.7.8-.8zM71.6 13.5V6.8l3.6-2.5h.2c.7.3 3 1.3 3.2 1.4.1 0 .2.1.4.1s.4-.1.7-.2V6c-.2.2-.5.6-.5.9v5.7c0 1.3.3 2.1.8 2.6v.2c-.8.8-2.6 2.7-3.4 3.6h-.1c-.8-.4-2.1-.8-3.1-.8-.8 0-1.7.2-2.3.7l-.2-.1c.6-1.4 1.9-2.9 3.6-2.9 1 0 2.4.4 3.6 1.1-.8-.9-1.5-2.6-1.5-3.9l-2.1 2h-.2l-2.7-1.6zm1.7 3.9c-.8 0-1.5.4-1.9.9v.1c.5-.3 1-.4 1.9-.4 1 0 2.4.3 3.1.7l.4-.5c-.9-.4-2.2-.8-3.5-.8m.8-2.5l.5-.4-2.1-1.5V6.6l-.6.4v6.4l2.2 1.5zm3.2-8.3l-3-1.2V6l2.3 1v6c0 1.3.6 2.7 1.5 3.8l.5-.5c-.8-1-1.3-2.1-1.3-3.4V6.6zm-.9 6.1V7.2l-2-.9v6.3l1.3.8.7-.7zM102 6.8l2.6-2.5h.2c.2.2 1.4 1.3 1.6 1.4.1.1.2.1.3.1.2 0 .4-.1.6-.2V6c-.2.2-.5.6-.5 1v6.4c-1.1.3-2 .9-3 2h-.1L102 15v1.4l.9.8-2.1 1.8h-.1l-2-1.7.5-.6v-2.4c-.2 0-.6-.1-.8-.2v-.3c.2-.1.9-.7.9-1.2V7.1l-.6-.6-.7.7-.2-.2 2.5-2.5h.2l1.6 1.6v.7zm-2.5 10.1l-.4.4 1.6 1.4.5-.4-1.3-1.1.2-.2V6.6l-.9-.9-.4.4.7.7v10.1zM104 13V7.2l-1-1-1.1 1v5.3c.5.2 1.9.4 2.1.5m-.3 2.1c.1-.2.3-.4.4-.5l-2.2-.4v.6l1.8.3zm-.5-9l1.1 1.1V13l.6-.3V6.8l-1.2-1.2-.5.5zM.8 9.3C.8 6.7 2.7 5 4.5 4.2l.1.2c-.6.7-1 1.4-1 3 0 1.8.5 3 1.2 3.8.2-.3.4-.7.4-1.1V7.5l3.2-2.3.1.2c-.2.3-.4.7-.4 1.3v1.7c0 1.2-1.9 2.5-3.1 2.9.8.8 1.9 1.1 3.1 1.1.4 0 .8 0 1.2-.1V5c-1.1-.1-2.1-.3-3-.6-1-.3-2-.6-2.8-.6-1.3 0-2.9.4-2.9 2.3v.6l-.3.1C.1 6.2 0 5.6 0 5.1 0 2.8 1.7.8 4.4.8c1.1 0 2.2.3 3.2.6s2 .6 3 .6c.5 0 .8-.3.8-.8s-.2-.7-.6-.8V.2c1.2.2 2.4.9 2.4 2.4C13.3 4.1 12 5 9.8 5h-.2v7.4c1.4-.3 2.4-.9 3.1-2.1l.2.1c-.8 2.5-2.7 4.9-6 4.9s-6.1-2-6.1-6m9-5.2c-2.4 0-4.6-1.2-6.3-1.2-1.2 0-2.5.5-2.9 1.8h.1c.5-.9 1.7-1.2 2.8-1.2 1.8 0 3.9 1.2 6.3 1.2 1.9 0 3.1-.7 3.2-2.2h-.1c-.2 1.2-1.2 1.6-3.1 1.6M2.9 5.6c-.9.9-1.7 2.1-1.7 3.7C1.2 13.1 3.7 15 7 15c2 0 3.4-1.1 4.2-1.9l-.1-.1c-.9.8-2.2 1.4-4.2 1.4-2.6 0-5.1-1.6-5.1-5.1 0-1.4.5-2.8 1.1-3.7zm3.2 4.3V7.1l-.6.5v2.6c0 .3-.1.5-.1.7h.1c.3-.3.6-.6.6-1M36.4 9.3c0-2.6 1.9-4.3 3.7-5.1l.1.2c-.7.8-1.1 1.5-1.1 3 0 1.8.5 3 1.2 3.8.2-.3.4-.7.4-1.1V7.5L44 5.1l.1.2c-.3.4-.4.8-.4 1.4v1.7c0 1.2-1.9 2.5-3.1 2.9.8.8 1.9 1.1 3.1 1.1.4 0 .8 0 1.2-.1V5c-1.1-.1-2.1-.3-3-.6-1-.3-2-.6-2.8-.6-1.3 0-2.9.4-2.9 2.3v.6l-.2.1c-.2-.6-.3-1.2-.3-1.7 0-2.3 1.7-4.3 4.4-4.3 1.1 0 2.2.3 3.2.6s2 .6 3 .6c.5 0 .8-.3.8-.8s-.2-.7-.6-.8V.2c1.2.2 2.4.9 2.4 2.4 0 1.8-1.3 2.6-3.5 2.6h-.2v7.4c1.4-.3 2.4-.9 3.1-2.1l.2.1c-.8 2.5-2.7 4.9-6 4.9-3.3-.2-6.1-2.2-6.1-6.2m9-5.2c-2.4 0-4.6-1.2-6.3-1.2-1.1 0-2.4.5-2.9 1.8h.1c.5-.9 1.7-1.2 2.8-1.2 1.8 0 3.9 1.2 6.3 1.2 1.9 0 3.1-.7 3.2-2.2h-.1c-.3 1.2-1.2 1.6-3.1 1.6m-6.9 1.5c-.9.9-1.7 2.1-1.7 3.7 0 3.8 2.5 5.7 5.8 5.7 2 0 3.4-1.1 4.2-1.9l-.1-.1c-.9.8-2.2 1.4-4.2 1.4-2.6 0-5.1-1.6-5.1-5.1 0-1.4.5-2.8 1.1-3.7zm3.2 4.3V7.1l-.6.4v2.6c0 .3-.1.5-.1.7h.1c.3-.2.6-.5.6-.9"/></svg>